<svg width="1440" height="1431" viewBox="0 0 1440 1431" fill="none" xmlns="http://www.w3.org/2000/svg">
<g clip-path="url(#clip0_548_73)">
<rect width="1440" height="1431" fill="#F3F3F3"/>
<g filter="url(#filter0_df_548_73)">
<circle cx="1460.5" cy="-169.5" r="926.5" fill="#CBB150"/>
</g>
<g filter="url(#filter1_df_548_73)">
<path fill-rule="evenodd" clip-rule="evenodd" d="M949.36 -253.999L-701 -86.3658L-589.633 1010.05C-438.038 1060.36 -274.04 1080.18 -105.426 1063.06C544.297 997.062 1016.54 407.396 949.36 -253.999Z" fill="#8E4BAD"/>
</g>
<g filter="url(#filter2_d_548_73)">
<path d="M32.4589 1248.29C35.0578 1200.03 71.2332 1160.25 119.031 1153.09L1348.41 968.994C1407.4 960.161 1462.38 1000.82 1471.21 1059.81L1508.58 1309.35C1517.41 1368.33 1476.75 1423.32 1417.76 1432.15L177.86 1617.82C134.552 1624.3 91.6153 1604 69.1544 1566.41L-27.6325 1404.42C-44.8758 1375.56 -32.994 1338.12 -2.26534 1324.48V1324.48C16.9855 1315.94 29.8183 1297.32 30.9508 1276.29L32.4589 1248.29Z" fill="#815694"/>
</g>
<g filter="url(#filter3_d_548_73)">
<path d="M1019.41 1193.93C1015.15 1142.25 973.505 1101.57 921.732 1098.54L83.0329 1049.33C23.4885 1045.83 -27.6139 1091.27 -31.1077 1150.81L-47.2027 1425.12C-50.6964 1484.67 -5.25846 1535.77 54.2859 1539.26L901.777 1588.99C949.978 1591.82 994.2 1562.31 1010.09 1516.72L1076.08 1327.34C1084.43 1303.39 1073.31 1277 1050.34 1266.24V1266.24C1034.28 1258.71 1023.47 1243.16 1022.02 1225.48L1019.41 1193.93Z" fill="#D6B023"/>
</g>
</g>
<defs>
<filter id="filter0_df_548_73" x="-140" y="-1346" width="2777" height="2357" filterUnits="userSpaceOnUse" color-interpolation-filters="sRGB">
<feFlood flood-opacity="0" result="BackgroundImageFix"/>
<feColorMatrix in="SourceAlpha" type="matrix" values="0 0 0 0 0 0 0 0 0 0 0 0 0 0 0 0 0 0 127 0" result="hardAlpha"/>
<feOffset dx="-424" dy="4"/>
<feGaussianBlur stdDeviation="125"/>
<feComposite in2="hardAlpha" operator="out"/>
<feColorMatrix type="matrix" values="0 0 0 0 0.796078 0 0 0 0 0.694118 0 0 0 0 0.313726 0 0 0 1 0"/>
<feBlend mode="normal" in2="BackgroundImageFix" result="effect1_dropShadow_548_73"/>
<feBlend mode="normal" in="SourceGraphic" in2="effect1_dropShadow_548_73" result="shape"/>
<feGaussianBlur stdDeviation="125" result="effect2_foregroundBlur_548_73"/>
</filter>
<filter id="filter1_df_548_73" x="-795" y="-466.999" width="2156.72" height="1823.09" filterUnits="userSpaceOnUse" color-interpolation-filters="sRGB">
<feFlood flood-opacity="0" result="BackgroundImageFix"/>
<feColorMatrix in="SourceAlpha" type="matrix" values="0 0 0 0 0 0 0 0 0 0 0 0 0 0 0 0 0 0 127 0" result="hardAlpha"/>
<feOffset dx="156" dy="37"/>
<feGaussianBlur stdDeviation="125"/>
<feComposite in2="hardAlpha" operator="out"/>
<feColorMatrix type="matrix" values="0 0 0 0 0.556863 0 0 0 0 0.294118 0 0 0 0 0.678431 0 0 0 1 0"/>
<feBlend mode="lighten" in2="BackgroundImageFix" result="effect1_dropShadow_548_73"/>
<feBlend mode="normal" in="SourceGraphic" in2="effect1_dropShadow_548_73" result="shape"/>
<feGaussianBlur stdDeviation="40" result="effect2_foregroundBlur_548_73"/>
</filter>
<filter id="filter2_d_548_73" x="-39.5791" y="967.789" width="1553.36" height="659.226" filterUnits="userSpaceOnUse" color-interpolation-filters="sRGB">
<feFlood flood-opacity="0" result="BackgroundImageFix"/>
<feColorMatrix in="SourceAlpha" type="matrix" values="0 0 0 0 0 0 0 0 0 0 0 0 0 0 0 0 0 0 127 0" result="hardAlpha"/>
<feOffset dy="4"/>
<feGaussianBlur stdDeviation="2"/>
<feComposite in2="hardAlpha" operator="out"/>
<feColorMatrix type="matrix" values="0 0 0 0 0 0 0 0 0 0 0 0 0 0 0 0 0 0 0.25 0"/>
<feBlend mode="normal" in2="BackgroundImageFix" result="effect1_dropShadow_548_73"/>
<feBlend mode="normal" in="SourceGraphic" in2="effect1_dropShadow_548_73" result="shape"/>
</filter>
<filter id="filter3_d_548_73" x="-51.3916" y="1049.14" width="1134.24" height="548.04" filterUnits="userSpaceOnUse" color-interpolation-filters="sRGB">
<feFlood flood-opacity="0" result="BackgroundImageFix"/>
<feColorMatrix in="SourceAlpha" type="matrix" values="0 0 0 0 0 0 0 0 0 0 0 0 0 0 0 0 0 0 127 0" result="hardAlpha"/>
<feOffset dy="4"/>
<feGaussianBlur stdDeviation="2"/>
<feComposite in2="hardAlpha" operator="out"/>
<feColorMatrix type="matrix" values="0 0 0 0 0 0 0 0 0 0 0 0 0 0 0 0 0 0 0.25 0"/>
<feBlend mode="normal" in2="BackgroundImageFix" result="effect1_dropShadow_548_73"/>
<feBlend mode="normal" in="SourceGraphic" in2="effect1_dropShadow_548_73" result="shape"/>
</filter>
<clipPath id="clip0_548_73">
<rect width="1440" height="1431" fill="white"/>
</clipPath>
</defs>
</svg>
