<svg width="1440" height="6955" viewBox="0 0 1440 6955" fill="none" xmlns="http://www.w3.org/2000/svg">
<g clip-path="url(#clip0_599_138)">
<rect width="1440" height="6955" fill="#F3F3F3"/>
<g filter="url(#filter0_df_599_138)">
<mask id="mask0_599_138" style="mask-type:alpha" maskUnits="userSpaceOnUse" x="-204" y="3517" width="2303" height="3612">
<rect x="-204" y="3517" width="2303" height="3611.44" fill="#D9D9D9"/>
</mask>
<g mask="url(#mask0_599_138)">
<rect x="-204" y="3517" width="2454.13" height="3037.95" fill="#333333"/>
<path d="M-962.262 3408.92C-962.262 3353.69 -917.49 3308.92 -862.262 3308.92H849.375C904.603 3308.92 949.375 3353.69 949.375 3408.92V4578.06C949.375 4633.29 904.603 4678.06 849.375 4678.06H-862.262C-917.49 4678.06 -962.262 4633.29 -962.262 4578.06V3408.92Z" fill="#E5D28B"/>
<path d="M-651.232 5365.25C-667.034 5311.03 -634.84 5254.5 -580.15 5240.42L48.0681 5078.75C94.419 5066.82 142.724 5089.41 163.289 5132.63L1168.65 7245.37C1200.23 7311.73 1151.84 7388.34 1078.36 7388.34H-503.552C-581.27 7388.34 -629.283 7303.57 -589.315 7236.91L-286.344 6731.66C-272.02 6707.77 -268.308 6678.99 -276.102 6652.25L-651.232 5365.25Z" fill="#552E87"/>
<circle cx="1128.66" cy="6017.63" r="1038.48" fill="#F3F3F3"/>
<path fill-rule="evenodd" clip-rule="evenodd" d="M1547.95 2932.57L3083.33 3551.86L2134.41 5904.49C1208.21 5530.92 760.224 4477.24 1133.8 3551.04C1230.75 3310.68 1373.51 3102.52 1547.95 2932.57Z" fill="#8E4BAD"/>
<rect x="787.031" y="6052.77" width="2149.3" height="2149.3" rx="100" fill="#D6B023"/>
</g>
</g>
<g filter="url(#filter1_f_599_138)">
<path d="M601.551 3470.95L598.494 3480.47L601.551 3470.95ZM1154.25 3289.01L1163.33 3293.21L1154.25 3289.01ZM1658 2531.93L1590.8 2438.03L1543.08 2543.18L1658 2531.93ZM87 3424.63C96.8866 3426.14 96.8868 3426.13 96.8875 3426.13C96.8882 3426.13 96.8893 3426.12 96.8908 3426.11C96.8939 3426.09 96.8986 3426.06 96.9049 3426.02C96.9175 3425.93 96.9367 3425.81 96.9624 3425.64C97.0137 3425.31 97.0909 3424.81 97.194 3424.14C97.4 3422.82 97.709 3420.85 98.1193 3418.28C98.9397 3413.13 100.165 3405.57 101.781 3395.96C105.012 3376.72 109.804 3349.25 116.044 3316.33C128.526 3250.47 146.781 3162.91 169.889 3075.94C193.03 2988.84 220.898 2902.89 252.478 2839.95C268.29 2808.44 284.729 2783.33 301.51 2766.73C318.29 2750.13 334.247 2743.13 349.61 2744.8L351.771 2724.92C328.052 2722.34 306.459 2733.71 287.446 2752.51C268.434 2771.31 250.838 2798.63 234.602 2830.98C202.084 2895.79 173.8 2983.34 150.559 3070.81C127.284 3158.41 108.927 3246.48 96.3935 3312.6C90.1246 3345.68 85.3078 3373.29 82.0569 3392.64C80.4314 3402.32 79.1973 3409.93 78.3686 3415.13C77.9543 3417.73 77.6414 3419.72 77.4316 3421.07C77.3267 3421.74 77.2476 3422.26 77.1945 3422.6C77.1679 3422.78 77.1479 3422.91 77.1344 3423C77.1276 3423.04 77.1225 3423.07 77.119 3423.1C77.1172 3423.11 77.1159 3423.12 77.115 3423.12C77.114 3423.13 77.1134 3423.13 87 3424.63ZM349.61 2744.8C365.006 2746.48 376.523 2755.39 385.55 2772.24C394.8 2789.51 400.86 2814.23 404.824 2845.12C412.766 2907.02 411.809 2988.57 415.165 3074.49C418.492 3159.65 426.079 3248.43 451.607 3322.02C477.232 3395.89 521.428 3455.73 598.494 3480.47L604.608 3461.43C535.561 3439.26 494.884 3385.76 470.502 3315.47C446.023 3244.9 438.47 3158.71 435.15 3073.7C431.859 2989.45 432.75 2905.63 424.661 2842.58C420.608 2810.99 414.183 2783.34 403.181 2762.8C391.956 2741.84 375.455 2727.49 351.771 2724.92L349.61 2744.8ZM598.494 3480.47C817.262 3550.71 1065.81 3504.06 1163.33 3293.21L1145.18 3284.81C1053.73 3482.54 818.583 3530.13 604.608 3461.43L598.494 3480.47ZM1163.33 3293.21C1221.67 3167.07 1176.33 3046.07 1089.11 2947.08C1001.98 2848.18 871.742 2769.41 754.979 2725.5L747.939 2744.22C862.454 2787.28 989.647 2864.44 1074.1 2960.3C1158.48 3056.07 1198.9 3168.67 1145.18 3284.81L1163.33 3293.21ZM754.979 2725.5C694.388 2702.71 649.474 2713.1 619.362 2742.3C590.121 2770.66 576.791 2814.95 574.265 2856.46C571.751 2897.79 579.765 2939.5 596.69 2963.33C605.3 2975.45 617.407 2984.43 632.677 2983.81C647.474 2983.21 661.831 2973.67 675.444 2957.15L660.009 2944.43C647.878 2959.15 638.315 2963.57 631.868 2963.83C625.894 2964.07 619.431 2960.81 612.995 2951.75C599.828 2933.21 591.847 2896.83 594.229 2857.68C596.599 2818.72 609.055 2780.16 633.286 2756.66C656.647 2734 692.892 2723.52 747.939 2744.22L754.979 2725.5ZM675.444 2957.15C681.661 2949.6 686.692 2944.5 690.691 2941.29C694.861 2937.95 696.995 2937.4 697.488 2937.35C697.568 2937.35 697.319 2937.37 696.974 2937.22C696.674 2937.09 696.705 2937 697.005 2937.35C697.772 2938.27 698.981 2940.51 700.147 2944.99C702.451 2953.84 703.56 2967.13 704.29 2983.69C704.992 2999.62 705.352 3018.95 706.36 3037.51C707.382 3056.33 709.113 3075.61 712.737 3092.94C716.329 3110.13 721.973 3126.39 731.466 3138.46C741.348 3151.02 755.188 3158.69 773.432 3158.36C790.962 3158.04 811.632 3150.35 836.147 3134.85L825.458 3117.95C802.283 3132.6 785.307 3138.14 773.067 3138.36C761.541 3138.57 753.488 3134.1 747.185 3126.09C740.493 3117.59 735.659 3104.85 732.314 3088.85C729.001 3073 727.334 3054.91 726.331 3036.43C725.313 3017.69 725.019 2999.78 724.27 2982.8C723.549 2966.44 722.411 2951.13 719.503 2939.96C718.063 2934.42 715.925 2928.79 712.332 2924.51C708.309 2919.71 702.508 2916.74 695.462 2917.46C689.301 2918.08 683.496 2921.42 678.174 2925.69C672.68 2930.1 666.664 2936.35 660.009 2944.43L675.444 2957.15ZM836.147 3134.85C931.148 3074.78 981.951 3039.79 1015.01 2995.34C1048.12 2950.84 1062.98 2897.43 1088.94 2803.16L1069.66 2797.85C1043.36 2893.34 1029.35 2942.56 998.968 2983.41C968.536 3024.31 921.219 3057.39 825.458 3117.95L836.147 3134.85ZM1088.94 2803.16C1102.82 2752.77 1093.32 2693.7 1069.15 2636.4C1044.91 2578.94 1005.5 2522.22 957.942 2475.97C863.583 2384.2 732.618 2330.07 623.674 2402.99L634.799 2419.61C731.472 2354.9 851.667 2400.51 943.998 2490.3C989.783 2534.83 1027.6 2589.36 1050.72 2644.17C1073.91 2699.14 1081.91 2753.36 1069.66 2797.85L1088.94 2803.16ZM623.674 2402.99C522.066 2471 466.118 2476.67 431.064 2471.83C422.12 2470.59 414.282 2468.64 407.021 2466.62C400.028 2464.68 392.79 2462.43 386.285 2461.07C379.562 2459.67 372.488 2458.93 365.164 2460.39C357.691 2461.88 350.768 2465.48 344.04 2471.48L357.341 2486.41C361.839 2482.41 365.615 2480.7 369.072 2480.01C372.679 2479.29 376.768 2479.51 382.2 2480.65C387.85 2481.83 393.759 2483.69 401.663 2485.89C409.3 2488.01 418.112 2490.23 428.329 2491.64C469.917 2497.38 530.789 2489.22 634.799 2419.61L623.674 2402.99ZM344.04 2471.48C331.025 2483.06 323.693 2497.42 321.771 2513.33C319.872 2529.05 323.313 2545.65 330.679 2562.06C345.358 2594.74 376.373 2628.37 418.02 2656.51L429.218 2639.94C389.495 2613.09 361.593 2582.07 348.924 2553.86C342.616 2539.82 340.275 2526.91 341.626 2515.73C342.954 2504.74 347.903 2494.82 357.341 2486.41L344.04 2471.48ZM418.02 2656.51C429.781 2664.45 449.205 2671.19 472.959 2676.95C497.064 2682.78 526.795 2687.87 560.053 2691.99C626.586 2700.23 707.857 2704.71 787.69 2703.54C867.439 2702.37 946.255 2695.55 1007.69 2681.01C1038.37 2673.74 1065.23 2664.43 1085.81 2652.61C1106.27 2640.86 1121.8 2625.87 1127.39 2606.7L1108.19 2601.1C1104.67 2613.18 1094.21 2624.72 1075.85 2635.27C1057.61 2645.75 1032.83 2654.5 1003.08 2661.55C943.653 2675.62 866.462 2682.38 787.397 2683.54C708.416 2684.7 628.068 2680.26 562.513 2672.14C529.727 2668.08 500.797 2663.11 477.666 2657.51C454.185 2651.82 437.798 2645.73 429.218 2639.94L418.02 2656.51ZM1127.39 2606.7C1147.03 2539.38 1110.28 2485.55 1089.55 2448.45C1084.22 2438.91 1080.01 2430.7 1077.51 2423.42C1075.01 2416.14 1074.57 2410.79 1075.63 2406.61C1077.58 2398.96 1086.58 2389.14 1120.23 2380.68L1115.35 2361.28C1081.47 2369.81 1061.27 2381.99 1056.25 2401.67C1053.83 2411.16 1055.47 2420.81 1058.6 2429.92C1061.73 2439.02 1066.7 2448.57 1072.09 2458.21C1094.24 2497.83 1125.01 2543.47 1108.19 2601.1L1127.39 2606.7ZM1120.23 2380.68C1142.42 2375.09 1173.66 2376.08 1210.96 2382.2C1248.01 2388.27 1290 2399.23 1333.13 2412.72C1419.38 2439.7 1509.36 2476.57 1572.04 2503.89L1580.03 2485.56C1517.08 2458.12 1426.36 2420.93 1339.11 2393.63C1295.49 2379.99 1252.52 2368.75 1214.2 2362.46C1176.13 2356.22 1141.59 2354.68 1115.35 2361.28L1120.23 2380.68Z" fill="#D6B023"/>
</g>
<g filter="url(#filter2_df_599_138)">
<ellipse cx="1237.61" cy="1267.15" rx="867.393" ry="1114.85" fill="#CBB150"/>
</g>
<g filter="url(#filter3_df_599_138)">
<path fill-rule="evenodd" clip-rule="evenodd" d="M759.074 1165.47C759.074 1165.47 759.074 1165.47 759.074 1165.47C821.969 1961.32 379.852 2670.86 -228.421 2750.27C-386.279 2770.88 -539.813 2747.03 -681.737 2686.49L-786 1367.18L759.074 1165.47Z" fill="#8E4BAD"/>
</g>
<g filter="url(#filter4_bf_599_138)">
<rect x="-116" y="982" width="1715" height="229" fill="url(#paint0_linear_599_138)"/>
</g>
</g>
<defs>
<filter id="filter0_df_599_138" x="-254" y="3467" width="2403" height="3711.44" filterUnits="userSpaceOnUse" color-interpolation-filters="sRGB">
<feFlood flood-opacity="0" result="BackgroundImageFix"/>
<feColorMatrix in="SourceAlpha" type="matrix" values="0 0 0 0 0 0 0 0 0 0 0 0 0 0 0 0 0 0 127 0" result="hardAlpha"/>
<feOffset dy="4"/>
<feGaussianBlur stdDeviation="2"/>
<feComposite in2="hardAlpha" operator="out"/>
<feColorMatrix type="matrix" values="0 0 0 0 0 0 0 0 0 0 0 0 0 0 0 0 0 0 0.25 0"/>
<feBlend mode="normal" in2="BackgroundImageFix" result="effect1_dropShadow_599_138"/>
<feBlend mode="normal" in="SourceGraphic" in2="effect1_dropShadow_599_138" result="shape"/>
<feGaussianBlur stdDeviation="25" result="effect2_foregroundBlur_599_138"/>
</filter>
<filter id="filter1_f_599_138" x="-22.8848" y="2257" width="1780.88" height="1353.95" filterUnits="userSpaceOnUse" color-interpolation-filters="sRGB">
<feFlood flood-opacity="0" result="BackgroundImageFix"/>
<feBlend mode="normal" in="SourceGraphic" in2="BackgroundImageFix" result="shape"/>
<feGaussianBlur stdDeviation="50" result="effect1_foregroundBlur_599_138"/>
</filter>
<filter id="filter2_df_599_138" x="-303.787" y="-97.7046" width="2658.79" height="2733.7" filterUnits="userSpaceOnUse" color-interpolation-filters="sRGB">
<feFlood flood-opacity="0" result="BackgroundImageFix"/>
<feColorMatrix in="SourceAlpha" type="matrix" values="0 0 0 0 0 0 0 0 0 0 0 0 0 0 0 0 0 0 127 0" result="hardAlpha"/>
<feOffset dx="-424" dy="4"/>
<feGaussianBlur stdDeviation="125"/>
<feComposite in2="hardAlpha" operator="out"/>
<feColorMatrix type="matrix" values="0 0 0 0 0.796078 0 0 0 0 0.694118 0 0 0 0 0.313726 0 0 0 1 0"/>
<feBlend mode="normal" in2="BackgroundImageFix" result="effect1_dropShadow_599_138"/>
<feBlend mode="normal" in="SourceGraphic" in2="effect1_dropShadow_599_138" result="shape"/>
<feGaussianBlur stdDeviation="125" result="effect2_foregroundBlur_599_138"/>
</filter>
<filter id="filter3_df_599_138" x="-880" y="952.467" width="2051.03" height="2092.07" filterUnits="userSpaceOnUse" color-interpolation-filters="sRGB">
<feFlood flood-opacity="0" result="BackgroundImageFix"/>
<feColorMatrix in="SourceAlpha" type="matrix" values="0 0 0 0 0 0 0 0 0 0 0 0 0 0 0 0 0 0 127 0" result="hardAlpha"/>
<feOffset dx="156" dy="37"/>
<feGaussianBlur stdDeviation="125"/>
<feComposite in2="hardAlpha" operator="out"/>
<feColorMatrix type="matrix" values="0 0 0 0 0.556863 0 0 0 0 0.294118 0 0 0 0 0.678431 0 0 0 1 0"/>
<feBlend mode="lighten" in2="BackgroundImageFix" result="effect1_dropShadow_599_138"/>
<feBlend mode="normal" in="SourceGraphic" in2="effect1_dropShadow_599_138" result="shape"/>
<feGaussianBlur stdDeviation="40" result="effect2_foregroundBlur_599_138"/>
</filter>
<filter id="filter4_bf_599_138" x="-216" y="882" width="1915" height="429" filterUnits="userSpaceOnUse" color-interpolation-filters="sRGB">
<feFlood flood-opacity="0" result="BackgroundImageFix"/>
<feGaussianBlur in="BackgroundImageFix" stdDeviation="50"/>
<feComposite in2="SourceAlpha" operator="in" result="effect1_backgroundBlur_599_138"/>
<feBlend mode="normal" in="SourceGraphic" in2="effect1_backgroundBlur_599_138" result="shape"/>
<feGaussianBlur stdDeviation="25" result="effect2_foregroundBlur_599_138"/>
</filter>
<linearGradient id="paint0_linear_599_138" x1="742" y1="959.5" x2="742.056" y2="1542.83" gradientUnits="userSpaceOnUse">
<stop stop-color="#010101"/>
<stop offset="1" stop-color="#8E4BAD"/>
</linearGradient>
<clipPath id="clip0_599_138">
<rect width="1440" height="6955" fill="white"/>
</clipPath>
</defs>
</svg>
