<svg width="31" height="23" viewBox="0 0 31 23" fill="none" xmlns="http://www.w3.org/2000/svg">
<path d="M0.818359 20.4997V7.74243C0.818359 7.63092 0.935706 7.5584 1.03544 7.60827L14.4767 14.3289C15.3213 14.7512 16.3154 14.7512 17.16 14.3289L30.6013 7.60827C30.701 7.5584 30.8184 7.63092 30.8184 7.74243V20.4997C30.8184 21.6043 29.9229 22.4997 28.8184 22.4997H2.81836C1.71379 22.4997 0.818359 21.6043 0.818359 20.4997Z" fill="#552E87"/>
<path d="M0.818359 1.99973V5.53202C0.818359 5.58884 0.85046 5.64078 0.901277 5.66618L14.4767 12.4539C15.3213 12.8762 16.3154 12.8762 17.16 12.4539L30.7354 5.66618C30.7863 5.64078 30.8184 5.58884 30.8184 5.53202V1.99973C30.8184 0.895156 29.9229 -0.000274658 28.8184 -0.000274658H2.81836C1.71379 -0.000274658 0.818359 0.895156 0.818359 1.99973Z" fill="#7629DB"/>
</svg>
