<svg width="38" height="40" viewBox="0 0 38 40" fill="none" xmlns="http://www.w3.org/2000/svg">
<g clip-path="url(#clip0_134_80)">
<path d="M34.5671 30.2247C36.1074 31.114 36.9184 32.1228 36.9184 33.1497C36.9184 34.1766 36.1074 35.1854 34.5671 36.0747C33.0268 36.964 30.8113 37.7025 28.1434 38.2159C25.4754 38.7294 22.449 38.9997 19.3684 38.9997C16.2877 38.9997 13.2613 38.7294 10.5934 38.2159C7.92542 37.7025 5.70995 36.964 4.16961 36.0747C2.62928 35.1854 1.81836 34.1766 1.81836 33.1497C1.81836 32.1228 2.62928 31.114 4.16961 30.2247" stroke="#552E87" stroke-width="2" stroke-linecap="round"/>
<path d="M32.018 13.6497C32.018 18.4049 29.4725 22.2234 26.541 25.0434C23.654 27.8206 20.4912 29.5304 19.368 30.0905C18.2448 29.5304 15.082 27.8206 12.1951 25.0434C9.26356 22.2234 6.71802 18.4049 6.71802 13.6497C6.71802 6.66334 12.3816 0.999741 19.368 0.999741C26.3544 0.999741 32.018 6.66334 32.018 13.6497Z" stroke="#7629DB" stroke-width="2"/>
<path d="M19.3676 18.4998C22.0462 18.4998 24.2176 16.3284 24.2176 13.6498C24.2176 10.9712 22.0462 8.7998 19.3676 8.7998C16.689 8.7998 14.5176 10.9712 14.5176 13.6498C14.5176 16.3284 16.689 18.4998 19.3676 18.4998Z" stroke="#552E87" stroke-width="2"/>
</g>
<defs>
<clipPath id="clip0_134_80">
<rect width="38" height="40" fill="white"/>
</clipPath>
</defs>
</svg>
