<svg width="38" height="36" viewBox="0 0 38 36" fill="none" xmlns="http://www.w3.org/2000/svg">
<path d="M19.196 1.99976L19.196 11.822" stroke="#7629DB" stroke-width="3"/>
<path d="M30.6548 6.78467L23.9127 13.5268" stroke="#7629DB" stroke-width="3"/>
<path d="M6.79883 6.97839L13.1533 13.3328" stroke="#7629DB" stroke-width="3"/>
<path d="M35.8184 18.9998C35.8184 14.4911 34.0273 10.1671 30.8392 6.97894C27.6511 3.79082 23.327 1.99976 18.8184 1.99976C14.3097 1.99976 9.98566 3.79082 6.79755 6.97894C3.60943 10.1671 1.81836 14.4911 1.81836 18.9998L11.2724 18.9998C11.2724 16.9984 12.0674 15.0791 13.4825 13.6639C14.8977 12.2488 16.817 11.4538 18.8184 11.4538C20.8197 11.4538 22.739 12.2488 24.1542 13.6639C25.5693 15.0791 26.3644 16.9984 26.3644 18.9998H35.8184Z" stroke="#552E87" stroke-width="3"/>
</svg>
