<svg width="1440" height="463" viewBox="0 0 1440 463" fill="none" xmlns="http://www.w3.org/2000/svg">
<g filter="url(#filter0_d_708_104)">
<path d="M28.4589 295.287C31.0578 247.027 67.2332 207.247 115.031 200.089L1344.41 15.9942C1403.4 7.16085 1458.38 47.82 1467.21 106.809L1504.58 356.345C1513.41 415.334 1472.75 470.315 1413.76 479.149L173.86 664.82C130.552 671.305 87.6153 650.997 65.1544 613.406L-31.6325 451.419C-48.8758 422.56 -36.994 385.119 -6.26534 371.483C12.9855 362.941 25.8183 344.323 26.9508 323.292L28.4589 295.287Z" fill="#815694"/>
</g>
<g filter="url(#filter1_d_708_104)">
<path d="M1015.41 240.932C1011.15 189.246 969.505 148.574 917.732 145.536L79.0329 96.326C19.4885 92.8322 -31.6139 138.27 -35.1076 197.815L-51.2026 472.123C-54.6964 531.668 -9.25852 582.77 50.2859 586.264L897.777 635.99C945.978 638.819 990.2 609.31 1006.09 563.716L1072.08 374.343C1080.43 350.388 1069.31 323.999 1046.34 313.235C1030.28 305.709 1019.47 290.162 1018.02 272.484L1015.41 240.932Z" fill="#D6B023"/>
</g>
<defs>
<filter id="filter0_d_708_104" x="-43.5791" y="14.7887" width="1553.36" height="659.226" filterUnits="userSpaceOnUse" color-interpolation-filters="sRGB">
<feFlood flood-opacity="0" result="BackgroundImageFix"/>
<feColorMatrix in="SourceAlpha" type="matrix" values="0 0 0 0 0 0 0 0 0 0 0 0 0 0 0 0 0 0 127 0" result="hardAlpha"/>
<feOffset dy="4"/>
<feGaussianBlur stdDeviation="2"/>
<feComposite in2="hardAlpha" operator="out"/>
<feColorMatrix type="matrix" values="0 0 0 0 0 0 0 0 0 0 0 0 0 0 0 0 0 0 0.25 0"/>
<feBlend mode="normal" in2="BackgroundImageFix" result="effect1_dropShadow_708_104"/>
<feBlend mode="normal" in="SourceGraphic" in2="effect1_dropShadow_708_104" result="shape"/>
</filter>
<filter id="filter1_d_708_104" x="-55.3914" y="96.1373" width="1134.24" height="548.04" filterUnits="userSpaceOnUse" color-interpolation-filters="sRGB">
<feFlood flood-opacity="0" result="BackgroundImageFix"/>
<feColorMatrix in="SourceAlpha" type="matrix" values="0 0 0 0 0 0 0 0 0 0 0 0 0 0 0 0 0 0 127 0" result="hardAlpha"/>
<feOffset dy="4"/>
<feGaussianBlur stdDeviation="2"/>
<feComposite in2="hardAlpha" operator="out"/>
<feColorMatrix type="matrix" values="0 0 0 0 0 0 0 0 0 0 0 0 0 0 0 0 0 0 0.25 0"/>
<feBlend mode="normal" in2="BackgroundImageFix" result="effect1_dropShadow_708_104"/>
<feBlend mode="normal" in="SourceGraphic" in2="effect1_dropShadow_708_104" result="shape"/>
</filter>
</defs>
</svg>
