<svg width="44" height="39" viewBox="0 0 44 39" fill="none" xmlns="http://www.w3.org/2000/svg">
<path d="M4.75684 18.8886C4.75684 17.8795 4.75684 17.3749 4.9785 16.9442C5.20017 16.5135 5.61074 16.2202 6.43188 15.6337L20.8376 5.34386C21.3989 4.9429 21.6796 4.74242 22.0001 4.74242C22.3205 4.74242 22.6012 4.9429 23.1626 5.34386L37.5683 15.6337C38.3894 16.2202 38.8 16.5135 39.0217 16.9442C39.2433 17.3749 39.2433 17.8795 39.2433 18.8886V37C39.2433 37.9428 39.2433 38.4142 38.9504 38.7071C38.6575 39 38.1861 39 37.2433 39H6.75684C5.81403 39 5.34262 39 5.04973 38.7071C4.75684 38.4142 4.75684 37.9428 4.75684 37V18.8886Z" fill="black"/>
<path d="M0 21.971C0 22.2417 0 22.3771 0.0849722 22.418C0.169944 22.4588 0.275708 22.3744 0.487237 22.2054L20.7518 6.01812C21.3503 5.53997 21.6496 5.3009 22 5.3009C22.3504 5.3009 22.6497 5.53997 23.2482 6.01812L43.5128 22.2054C43.7243 22.3744 43.8301 22.4588 43.915 22.418C44 22.3771 44 22.2417 44 21.971V18.5357C44 18.063 44 17.8266 43.9011 17.6211C43.8023 17.4156 43.6176 17.2681 43.2482 16.9731L23.2482 0.997097C22.6497 0.518949 22.3504 0.279875 22 0.279875C21.6496 0.279875 21.3503 0.518949 20.7518 0.997097L0.751755 16.9731C0.382392 17.2681 0.197711 17.4156 0.0988556 17.6211C0 17.8266 0 18.063 0 18.5357V21.971Z" fill="#222222"/>
<path d="M26.5406 24.7297H17.4595C16.3549 24.7297 15.4595 25.6252 15.4595 26.7297V38.85C15.4595 38.9328 15.5266 39 15.6095 39H28.3906C28.4734 39 28.5406 38.9328 28.5406 38.85V26.7297C28.5406 25.6252 27.6451 24.7297 26.5406 24.7297Z" fill="#222222"/>
<rect x="32" y="3" width="4.75676" height="9.51351" rx="0.5" fill="#222222"/>
<rect x="1" y="19" width="42" height="3" fill="black"/>
</svg>
