<svg width="20" height="20" viewBox="0 0 20 20" fill="none" xmlns="http://www.w3.org/2000/svg">
<path d="M17.3392 14.7133C18.0835 15.143 18.4753 15.6305 18.4753 16.1267C18.4753 16.6229 18.0835 17.1103 17.3392 17.5401C16.5949 17.9698 15.5243 18.3266 14.2351 18.5747C12.946 18.8228 11.4836 18.9535 9.99498 18.9535C8.50637 18.9535 7.04399 18.8228 5.75482 18.5747C4.46564 18.3266 3.3951 17.9698 2.6508 17.5401C1.90649 17.1103 1.51465 16.6229 1.51465 16.1267C1.51465 15.6305 1.90649 15.143 2.6508 14.7133" stroke="#552E87" stroke-width="2" stroke-linecap="round"/>
<path d="M15.5915 6.70418C15.5915 8.69391 14.5848 10.3406 13.3163 11.6271C12.0872 12.8736 10.6892 13.7003 9.99572 14.0674C9.30222 13.7003 7.90422 12.8736 6.67511 11.6271C5.40662 10.3406 4.3999 8.69391 4.3999 6.70418C4.3999 3.6137 6.90523 1.10837 9.99572 1.10837C13.0862 1.10837 15.5915 3.6137 15.5915 6.70418Z" stroke="#7629DB" stroke-width="2"/>
<circle cx="9.99475" cy="6.70419" r="1.82678" stroke="#552E87" stroke-width="2"/>
</svg>
