<svg width="25" height="25" viewBox="0 0 25 25" fill="none" xmlns="http://www.w3.org/2000/svg">
<mask id="mask0_729_109" style="mask-type:alpha" maskUnits="userSpaceOnUse" x="0" y="0" width="25" height="25">
<rect width="25" height="25" fill="#D9D9D9"/>
</mask>
<g mask="url(#mask0_729_109)">
<path d="M4.16683 20.8333C3.59391 20.8333 3.10346 20.6293 2.69548 20.2214C2.28749 19.8134 2.0835 19.3229 2.0835 18.75V6.25001C2.0835 5.67709 2.28749 5.18664 2.69548 4.77865C3.10346 4.37066 3.59391 4.16667 4.16683 4.16667H20.8335C21.4064 4.16667 21.8969 4.37066 22.3049 4.77865C22.7128 5.18664 22.9168 5.67709 22.9168 6.25001V18.75C22.9168 19.3229 22.7128 19.8134 22.3049 20.2214C21.8969 20.6293 21.4064 20.8333 20.8335 20.8333H4.16683ZM12.5002 13.5417L4.16683 8.33334V18.75H20.8335V8.33334L12.5002 13.5417ZM12.5002 11.4583L20.8335 6.25001H4.16683L12.5002 11.4583ZM4.16683 8.33334V6.25001V18.75V8.33334Z" fill="#552E87"/>
</g>
</svg>
