<svg width="31" height="30" viewBox="0 0 31 30" fill="none" xmlns="http://www.w3.org/2000/svg">
<mask id="mask0_413_159" style="mask-type:alpha" maskUnits="userSpaceOnUse" x="0" y="0" width="31" height="30">
<rect x="0.416992" y="0.516479" width="29.8311" height="28.6384" fill="#D9D9D9"/>
</mask>
<g mask="url(#mask0_413_159)">
<path d="M22.791 17.2223V13.6425H19.0621V11.2559H22.791V7.67612H25.2769V11.2559H29.0058V13.6425H25.2769V17.2223H22.791ZM11.6043 14.8357C10.2371 14.8357 9.06663 14.3684 8.09297 13.4336C7.11932 12.4989 6.63249 11.3752 6.63249 10.0626C6.63249 8.75006 7.11932 7.6264 8.09297 6.69167C9.06663 5.75694 10.2371 5.28958 11.6043 5.28958C12.9716 5.28958 14.1421 5.75694 15.1157 6.69167C16.0894 7.6264 16.5762 8.75006 16.5762 10.0626C16.5762 11.3752 16.0894 12.4989 15.1157 13.4336C14.1421 14.3684 12.9716 14.8357 11.6043 14.8357ZM1.66064 24.3819V21.0407C1.66064 20.3645 1.84191 19.743 2.20444 19.1762C2.56697 18.6094 3.04862 18.1769 3.64938 17.8785C4.93378 17.262 6.23889 16.7996 7.56471 16.4914C8.89054 16.1831 10.2371 16.029 11.6043 16.029C12.9716 16.029 14.3181 16.1831 15.644 16.4914C16.9698 16.7996 18.2749 17.262 19.5593 17.8785C20.1601 18.1769 20.6417 18.6094 21.0042 19.1762C21.3668 19.743 21.548 20.3645 21.548 21.0407V24.3819H1.66064ZM4.14657 21.9953H19.0621V21.0407C19.0621 20.8219 19.0051 20.6231 18.8912 20.4441C18.7773 20.2651 18.6271 20.1259 18.4406 20.0264C17.322 19.4895 16.1929 19.0867 15.0536 18.8182C13.9142 18.5498 12.7644 18.4155 11.6043 18.4155C10.4442 18.4155 9.2945 18.5498 8.15512 18.8182C7.01574 19.0867 5.88671 19.4895 4.76805 20.0264C4.5816 20.1259 4.43141 20.2651 4.31748 20.4441C4.20354 20.6231 4.14657 20.8219 4.14657 21.0407V21.9953ZM11.6043 12.4492C12.288 12.4492 12.8732 12.2155 13.36 11.7481C13.8468 11.2808 14.0903 10.7189 14.0903 10.0626C14.0903 9.40635 13.8468 8.84452 13.36 8.37716C12.8732 7.9098 12.288 7.67612 11.6043 7.67612C10.9207 7.67612 10.3355 7.9098 9.84866 8.37716C9.36183 8.84452 9.11841 9.40635 9.11841 10.0626C9.11841 10.7189 9.36183 11.2808 9.84866 11.7481C10.3355 12.2155 10.9207 12.4492 11.6043 12.4492Z" fill="#552E87"/>
</g>
</svg>
