<svg width="33" height="32" viewBox="0 0 33 32" fill="none" xmlns="http://www.w3.org/2000/svg">
<path d="M4.49798 3.43121L7.22236 0.706832C7.61289 0.316308 8.24605 0.316307 8.63658 0.706831L14.3335 6.40373C14.724 6.79425 14.724 7.42742 14.3335 7.81794L11.9681 10.1833C11.6796 10.4718 11.6081 10.9125 11.7906 11.2775C13.9002 15.4967 17.3214 18.9179 21.5406 21.0275C21.9055 21.21 22.3463 21.1385 22.6348 20.85L25.0001 18.4846C25.3907 18.0941 26.0238 18.0941 26.4144 18.4846L32.1113 24.1815C32.5018 24.572 32.5018 25.2052 32.1113 25.5957L29.3869 28.3201C27.2755 30.4315 23.933 30.669 21.5442 28.8775L14.1136 23.3045C12.3701 21.9968 10.8212 20.448 9.5136 18.7045L3.94062 11.2739C2.14908 8.88513 2.38663 5.54257 4.49798 3.43121Z" fill="#7629DB"/>
<path fill-rule="evenodd" clip-rule="evenodd" d="M7.25187 0.677858L5.26343 2.6663L12.3739 9.77681L14.3329 7.81785C14.7234 7.42733 14.7234 6.79416 14.3329 6.40364L8.63599 0.706742C8.25535 0.326095 7.64418 0.316468 7.25187 0.677858ZM30.1517 27.5546L32.1107 25.5956C32.5012 25.2051 32.5012 24.5719 32.1107 24.1814L26.4138 18.4845C26.0232 18.094 25.3901 18.094 24.9996 18.4845L23.0406 20.4435L30.1517 27.5546Z" fill="#552E87"/>
</svg>
