<svg width="18" height="20" viewBox="0 0 18 20" fill="none" xmlns="http://www.w3.org/2000/svg">
<path d="M14.2392 12.1377L16.5762 14.6544C16.8632 14.9635 16.8632 15.4417 16.5762 15.7508C14.8476 17.6124 11.973 17.8183 9.99677 16.2221L8.89809 15.3347C7.20705 13.9688 5.71817 12.3702 4.4759 10.5864L3.43877 9.09716C2.0039 7.03684 2.19902 4.25501 3.90745 2.41516C4.25938 2.03616 4.85923 2.03616 5.21116 2.41516L7.50629 4.88684C7.86257 5.27053 7.86257 5.86407 7.50629 6.24775L6.58213 7.24299C6.44097 7.39501 6.40581 7.61733 6.49317 7.80549L6.58358 8.00021C7.59277 10.1739 9.2784 11.9625 11.3885 13.0987C11.5819 13.2028 11.8213 13.1632 11.9709 13.0021L12.7736 12.1377C13.1692 11.7116 13.8436 11.7116 14.2392 12.1377Z" fill="#7629DB"/>
<path fill-rule="evenodd" clip-rule="evenodd" d="M16.6257 13.6223C16.8969 13.3173 16.8969 12.857 16.6257 12.552L14.2632 10.0078C13.8659 9.59618 13.2024 9.60097 12.8112 10.0222L12.2018 10.6785L15.6758 14.4196C16.0018 14.211 16.3074 13.9599 16.5843 13.6669L16.6257 13.6223ZM6.83359 4.89727L7.54393 4.13228C7.89574 3.75341 7.90015 3.16991 7.55717 2.78591L5.23601 0.2862C4.88249 -0.0792549 4.2928 -0.0747562 3.94509 0.299696C3.70809 0.554923 3.50022 0.828277 3.32178 1.11532L6.83359 4.89727Z" fill="#552E87"/>
</svg>
