<svg width="85" height="85" viewBox="0 0 85 85" fill="none" xmlns="http://www.w3.org/2000/svg">
<path fill-rule="evenodd" clip-rule="evenodd" d="M85 42.4999V42.5V42.5001C85 55.7017 85 62.3025 82.8433 67.5094C79.9676 74.4518 74.4518 79.9676 67.5094 82.8433C62.3025 85 55.7017 85 42.5001 85H42.5H28.3333C14.9769 85 8.29864 85 4.14932 80.8507C0 76.7014 0 70.0231 0 56.6667V42.5C0 29.2983 0 22.6975 2.15675 17.4906C5.03241 10.5482 10.5482 5.03241 17.4906 2.15675C22.6975 0 29.2983 0 42.5 0C55.7017 0 62.3025 0 67.5094 2.15675C74.4518 5.03241 79.9676 10.5482 82.8433 17.4906C85 22.6975 85 29.2983 85 42.4999ZM22.8328 33.0555C22.8328 30.018 25.2952 27.5555 28.3328 27.5555H56.6661C59.7037 27.5555 62.1661 30.018 62.1661 33.0555C62.1661 36.0931 59.7037 38.5555 56.6661 38.5555H28.3328C25.2952 38.5555 22.8328 36.0931 22.8328 33.0555ZM22.8328 51.9444C22.8328 48.9068 25.2952 46.4444 28.3328 46.4444H42.4994C45.537 46.4444 47.9994 48.9068 47.9994 51.9444C47.9994 54.982 45.537 57.4444 42.4994 57.4444H28.3328C25.2952 57.4444 22.8328 54.982 22.8328 51.9444Z" fill="#D6B023"/>
</svg>
