<svg width="31" height="31" viewBox="0 0 31 31" fill="none" xmlns="http://www.w3.org/2000/svg">
<path d="M2.49798 3.43121L5.22236 0.706832C5.61289 0.316308 6.24605 0.316307 6.63658 0.706831L12.3335 6.40373C12.724 6.79425 12.724 7.42742 12.3335 7.81794L9.96813 10.1833C9.67962 10.4718 9.6081 10.9125 9.79057 11.2775C11.9002 15.4967 15.3214 18.9179 19.5406 21.0275C19.9055 21.21 20.3463 21.1385 20.6348 20.85L23.0001 18.4846C23.3907 18.0941 24.0238 18.0941 24.4144 18.4846L30.1113 24.1815C30.5018 24.572 30.5018 25.2052 30.1113 25.5957L27.3869 28.3201C25.2755 30.4315 21.933 30.669 19.5442 28.8775L12.1136 23.3045C10.3701 21.9968 8.82124 20.448 7.5136 18.7045L1.94062 11.2739C0.149082 8.88513 0.38663 5.54257 2.49798 3.43121Z" fill="#7629DB"/>
</svg>
